<?xml version="1.0" standalone="no"?>
<!DOCTYPE svg PUBLIC "-//W3C//DTD SVG 20010904//EN"
 "http://www.w3.org/TR/2001/REC-SVG-20010904/DTD/svg10.dtd">
<svg version="1.0" xmlns="http://www.w3.org/2000/svg"
 width="2000.000000pt" height="1500.000000pt" viewBox="0 0 2000.000000 1500.000000"
 preserveAspectRatio="xMidYMid meet">

<g transform="translate(0.000000,1500.000000) scale(0.100000,-0.100000)"
fill="#ffffff" stroke="none">
<path d="M9692 12481 c-11 -6 -5 -68 28 -321 22 -172 44 -318 47 -323 24 -40
-50 43 -266 297 l-250 293 -53 -8 c-29 -4 -63 -8 -75 -8 -22 -1 -22 -2 -8 -42
12 -32 115 -768 115 -817 0 -17 79 -16 86 1 3 8 -16 171 -41 362 -25 192 -44
352 -43 356 2 5 131 -142 288 -326 279 -327 286 -334 323 -334 20 -1 37 4 37
9 0 6 -25 199 -55 430 -30 231 -55 424 -55 430 0 12 -59 13 -78 1z"/>
<path d="M10797 12380 c-132 -51 -226 -178 -261 -352 -27 -133 -17 -229 34
-335 60 -122 168 -185 320 -187 73 -1 93 3 144 27 32 15 60 27 62 27 2 0 7
-18 10 -41 5 -31 13 -43 31 -50 39 -14 40 -13 47 64 4 39 19 139 33 220 14 81
23 150 21 152 -5 6 -265 55 -290 55 -17 0 -43 -59 -31 -71 5 -4 50 -14 102
-23 51 -8 95 -17 97 -19 9 -8 -20 -118 -40 -152 -36 -64 -87 -98 -155 -103
-214 -15 -329 186 -261 454 51 200 177 297 342 264 77 -15 100 -26 160 -80
l47 -41 36 28 c19 15 35 31 35 34 0 8 -49 52 -86 77 -17 12 -65 33 -107 47
-95 32 -217 34 -290 5z"/>
<path d="M8367 12220 c-109 -39 -188 -106 -230 -198 -32 -71 -31 -249 2 -350
80 -245 282 -376 487 -317 180 52 274 166 282 345 10 210 -100 424 -258 506
-75 38 -198 44 -283 14z m213 -90 c118 -60 220 -260 220 -431 0 -122 -43 -200
-136 -245 -173 -84 -330 16 -416 266 -41 119 -34 251 17 328 65 98 210 136
315 82z"/>
<path d="M11686 12169 c-4 -23 -72 -207 -151 -409 -80 -203 -145 -371 -145
-373 0 -12 91 -40 100 -31 5 5 39 86 76 179 36 94 67 171 69 173 2 2 137 -47
142 -51 0 -1 16 -103 34 -226 l33 -224 54 -24 c30 -13 57 -21 60 -19 3 3 -12
108 -32 233 -20 126 -36 231 -36 236 0 4 17 7 38 7 107 1 201 97 218 224 6 37
2 55 -21 102 -35 72 -99 115 -279 185 -72 28 -136 53 -142 56 -7 2 -14 -13
-18 -38z m181 -116 c85 -33 116 -54 142 -97 36 -57 23 -133 -32 -194 -30 -32
-85 -45 -144 -32 -58 13 -163 52 -163 61 0 6 23 68 101 267 11 28 14 28 96 -5z"/>
<path d="M7553 11873 c-29 -20 -53 -42 -53 -50 0 -14 141 -640 157 -693 6 -23
3 -22 -43 16 -62 51 -540 404 -547 404 -3 0 -36 -19 -72 -41 l-66 -42 34 -36
c19 -20 128 -180 242 -356 114 -176 211 -324 215 -329 5 -5 23 2 42 15 18 12
34 23 36 24 1 2 -82 132 -186 291 -103 159 -191 295 -196 302 -8 13 140 -94
449 -326 119 -90 163 -118 175 -111 8 4 21 12 28 17 11 7 -2 76 -62 338 -41
181 -79 349 -85 373 -5 24 -6 39 -1 35 4 -5 88 -133 185 -284 98 -151 184
-281 191 -289 11 -12 19 -10 54 13 24 16 39 33 37 40 -10 25 -469 726 -476
725 -3 0 -30 -16 -58 -36z"/>
<path d="M12529 11701 c-141 -45 -271 -188 -329 -361 -30 -90 -26 -223 10
-295 34 -70 103 -136 185 -176 64 -31 77 -34 160 -34 77 0 98 4 148 27 136 64
245 199 292 362 25 86 17 214 -17 281 -45 86 -135 160 -236 194 -74 25 -138
26 -213 2z m198 -86 c73 -22 147 -90 169 -157 52 -158 -81 -424 -256 -511
-164 -82 -360 38 -360 219 1 169 161 401 310 448 59 19 76 19 137 1z"/>
<path d="M6519 11137 l-46 -52 107 -215 c60 -118 135 -266 168 -327 33 -62 59
-113 57 -113 -2 0 -25 9 -52 21 -26 11 -178 75 -337 140 l-290 120 -53 -53
c-29 -29 -53 -56 -53 -60 0 -5 14 -17 31 -27 17 -11 139 -120 272 -243 132
-122 265 -245 294 -272 l54 -49 29 28 c17 16 30 31 30 35 0 3 -117 114 -259
245 -143 132 -258 241 -257 242 1 1 159 -63 350 -143 l349 -146 23 24 24 23
-170 337 c-94 184 -170 339 -170 343 0 4 39 -30 88 -77 77 -75 332 -312 405
-377 l27 -25 35 34 c19 19 35 37 35 41 0 8 -625 592 -638 596 -4 2 -28 -21
-53 -50z"/>
<path d="M13425 11161 c-8 -17 -107 -125 -219 -240 -232 -239 -251 -267 -251
-376 0 -87 26 -145 99 -220 123 -126 272 -148 401 -60 28 19 144 132 259 250
l209 217 -32 31 -33 32 -221 -227 c-236 -241 -271 -267 -355 -268 -23 0 -58 6
-76 14 -49 20 -112 81 -135 130 -51 105 -27 147 248 430 122 125 221 229 219
230 -2 2 -24 22 -50 45 l-47 42 -16 -30z"/>
<path d="M9775 10419 c-552 -41 -1092 -246 -1539 -583 -1000 -755 -1408 -2062
-1015 -3256 320 -970 1136 -1711 2132 -1934 529 -119 1082 -90 1588 82 768
262 1391 827 1726 1565 358 789 345 1708 -37 2492 -526 1077 -1656 1724 -2855
1634z m-1055 -2019 c92 -22 117 -26 303 -45 238 -25 467 -95 691 -213 123 -65
180 -118 207 -192 12 -33 28 -65 35 -71 12 -9 14 -113 14 -603 -1 -509 -3
-586 -14 -553 -24 65 -64 116 -134 167 -128 95 -404 222 -630 289 -136 40
-232 58 -420 76 -86 8 -209 25 -272 37 -149 29 -416 118 -412 139 1 8 82 248
179 535 l177 521 100 -34 c56 -19 135 -42 176 -53z m3009 -435 c99 -286 181
-526 183 -533 6 -26 -258 -114 -436 -147 -45 -8 -155 -22 -246 -30 -268 -26
-502 -89 -760 -204 -276 -123 -386 -211 -431 -344 -17 -51 -18 -41 -18 552 -1
572 0 606 17 625 10 12 24 40 31 63 6 23 23 56 38 73 64 76 256 177 483 254
147 49 238 67 463 91 156 17 281 45 412 93 44 17 81 29 82 28 1 -1 83 -236
182 -521z m-3569 -671 c153 -58 343 -102 512 -119 373 -39 565 -88 853 -218
81 -36 143 -72 90 -52 -66 25 -257 78 -355 99 -195 42 -264 47 -556 46 -298 0
-402 9 -599 53 -78 17 -101 26 -103 40 -4 22 45 187 56 187 4 0 50 -16 102
-36z m3803 -1 c9 -21 23 -66 31 -100 l14 -63 -36 -9 c-216 -58 -334 -71 -664
-71 -206 0 -319 -4 -400 -16 -115 -16 -365 -76 -472 -113 -33 -12 -61 -20 -63
-18 -5 5 136 70 254 116 217 86 362 119 633 146 213 21 344 49 523 110 84 29
155 53 158 54 3 0 13 -16 22 -36z m-3860 -283 c172 -41 288 -51 585 -50 310 0
402 -9 617 -60 134 -32 315 -87 329 -101 5 -5 -6 -4 -25 1 -63 19 -253 48
-389 61 -183 16 -378 7 -570 -28 -143 -26 -175 -28 -412 -28 -177 0 -261 3
-268 11 -9 9 -8 38 1 113 14 117 5 111 132 81z m3920 -27 c4 -27 9 -75 13
-109 l6 -61 -83 -7 c-124 -10 -374 -8 -454 3 -38 6 -128 20 -200 33 -226 39
-546 30 -819 -23 -55 -10 -102 -17 -104 -15 -6 7 151 54 302 92 225 55 326 65
637 62 287 -2 409 9 582 52 113 28 113 28 120 -27z m-2683 -227 c267 -36 265
-41 -17 -41 -307 -1 -409 -14 -642 -82 -279 -82 -389 -103 -640 -119 l-104 -6
8 103 c4 57 8 105 10 107 2 2 75 -2 162 -8 180 -14 303 -6 556 35 83 13 170
26 192 29 75 8 359 -3 475 -18z m1978 -11 c254 -42 382 -50 565 -36 88 6 161
10 162 9 2 -2 6 -49 10 -105 l8 -103 -44 0 c-78 0 -282 20 -368 36 -47 8 -168
39 -270 69 -102 29 -223 60 -268 69 -137 26 -347 39 -522 33 -89 -3 -161 -4
-160 -2 8 7 257 45 354 54 151 14 359 5 533 -24z"/>
<path d="M14154 10359 c-10 -12 -167 -121 -349 -242 -181 -121 -333 -222 -337
-226 -4 -4 4 -23 17 -44 l26 -37 306 205 c169 113 307 204 308 202 1 -1 -76
-186 -172 -410 l-174 -408 18 -29 c10 -17 20 -29 24 -28 27 11 729 485 729
493 0 6 -11 24 -24 40 l-24 30 -271 -181 c-149 -100 -271 -180 -271 -177 0 2
68 162 150 355 83 192 150 354 150 359 0 13 -71 119 -80 119 -4 0 -15 -10 -26
-21z"/>
<path d="M5783 10135 c-100 -27 -176 -94 -235 -207 -30 -58 -33 -70 -33 -158
0 -81 4 -103 26 -150 78 -167 294 -300 488 -300 110 0 179 26 249 96 109 110
150 269 102 396 -43 116 -139 212 -275 278 -125 60 -218 73 -322 45z m178
-111 c138 -41 278 -148 325 -248 56 -120 7 -267 -110 -329 -57 -30 -177 -29
-259 2 -136 53 -264 166 -302 266 -44 113 23 260 140 311 41 18 141 17 206 -2z"/>
<path d="M14700 9417 c-19 -13 -200 -89 -402 -167 -203 -79 -368 -149 -368
-154 0 -19 108 -285 137 -337 71 -132 230 -201 388 -170 139 28 284 104 341
178 70 92 91 215 59 349 -12 51 -112 324 -118 324 -1 0 -18 -11 -37 -23z m41
-209 c29 -73 33 -95 33 -178 1 -73 -3 -102 -17 -128 -85 -156 -374 -255 -523
-179 -50 25 -78 51 -105 97 -15 25 -76 173 -81 198 -2 9 107 57 322 142 179
70 328 129 332 129 3 1 21 -36 39 -81z"/>
<path d="M5273 9295 c-51 -44 -96 -115 -124 -197 -88 -261 137 -531 462 -555
179 -13 323 78 390 247 22 57 38 232 25 283 -5 21 -9 23 -42 18 l-37 -6 1 -70
c4 -128 -41 -245 -113 -301 -125 -95 -360 -59 -509 77 -140 128 -143 299 -6
422 l48 43 -19 37 c-11 20 -23 37 -27 37 -5 0 -27 -16 -49 -35z"/>
<path d="M5358 7364 c-87 -47 -50 -184 50 -184 51 0 89 30 98 76 17 89 -68
152 -148 108z"/>
<path d="M14562 7355 c-75 -63 -32 -175 68 -175 36 0 86 41 93 77 18 94 -90
158 -161 98z"/>
<path d="M5639 6031 c-140 -92 -174 -120 -171 -135 4 -18 12 -19 165 -12 89 3
157 2 152 -2 -6 -5 -65 -44 -132 -87 -68 -43 -123 -83 -123 -89 1 -29 17 -32
165 -25 83 4 178 8 212 8 57 1 61 2 56 22 -6 21 -8 21 -172 14 l-166 -7 125
81 c69 45 131 85 139 90 8 4 11 16 7 27 -5 18 -14 19 -163 12 -86 -4 -158 -6
-160 -4 -2 2 56 41 129 88 104 66 132 89 130 104 -2 10 -7 22 -10 25 -4 4 -86
-46 -183 -110z"/>
<path d="M14176 6024 c-7 -18 3 -32 72 -105 24 -26 40 -49 35 -52 -4 -2 -45
-12 -90 -22 -75 -16 -83 -20 -92 -47 -9 -25 -8 -29 7 -24 9 2 63 14 120 26
l102 22 91 -31 c51 -17 95 -28 99 -26 4 3 10 13 13 24 4 16 -9 23 -92 50 l-96
30 -75 85 c-41 47 -78 85 -81 86 -4 0 -10 -7 -13 -16z"/>
<path d="M14072 5665 c-42 -30 -76 -104 -77 -165 0 -79 35 -129 122 -171 111
-55 206 -40 260 43 23 34 27 51 26 99 -1 52 1 58 20 61 38 5 21 19 -65 55 -46
18 -88 36 -94 39 -12 5 -67 -123 -59 -137 12 -19 27 -8 42 31 10 26 22 40 34
40 27 0 77 -47 84 -80 8 -39 -19 -97 -56 -115 -87 -46 -252 27 -275 121 -9 35
22 110 57 137 21 16 28 28 23 40 -8 21 -14 21 -42 2z"/>
<path d="M5970 5610 c-8 -5 -90 -42 -182 -82 -156 -68 -166 -74 -156 -93 6
-11 12 -21 13 -22 1 -2 38 13 82 32 45 19 85 35 90 35 12 0 84 -173 75 -181
-4 -4 -42 -22 -84 -39 -77 -32 -86 -42 -69 -68 6 -10 48 4 187 63 98 43 182
80 185 84 4 3 3 16 -2 28 l-8 22 -76 -34 c-42 -19 -79 -35 -84 -35 -8 0 -86
179 -80 183 2 2 39 18 81 36 68 30 76 35 69 54 -9 25 -21 30 -41 17z"/>
<path d="M13891 5253 c-77 -38 -117 -142 -86 -221 44 -110 215 -180 313 -129
45 24 84 87 89 145 13 140 -186 269 -316 205z m154 -57 c55 -25 111 -82 121
-121 14 -58 -32 -130 -91 -141 -75 -14 -190 48 -225 121 -19 39 -20 50 -10 80
27 82 109 106 205 61z"/>
<path d="M6150 5226 c-8 -8 -82 -51 -165 -95 -82 -45 -153 -86 -158 -90 -4 -4
18 -53 48 -109 40 -72 60 -99 70 -95 20 7 20 8 -25 91 -22 40 -40 77 -40 81 0
9 127 77 133 71 2 -3 18 -31 36 -62 22 -39 36 -55 46 -51 20 7 20 8 -15 70
-16 29 -30 57 -30 62 0 5 26 23 57 41 67 35 63 37 114 -62 32 -63 39 -70 58
-59 10 6 -1 34 -45 115 -33 58 -61 106 -64 106 -3 0 -12 -6 -20 -14z"/>
<path d="M6168 4836 c-92 -61 -167 -113 -167 -116 0 -3 6 -13 14 -23 13 -18
18 -16 90 33 61 41 79 49 87 39 29 -45 29 -47 -18 -140 -39 -78 -44 -96 -35
-116 6 -12 14 -23 18 -23 5 0 28 43 52 95 35 76 47 95 60 89 9 -3 35 -9 58
-11 39 -5 46 -2 79 31 33 33 36 41 31 76 -4 35 -85 182 -97 178 -3 0 -80 -51
-172 -112z m200 5 c27 -48 28 -85 2 -111 -33 -33 -77 -26 -116 17 -19 20 -34
42 -34 49 0 12 97 82 116 83 6 1 20 -16 32 -38z"/>
<path d="M13596 4805 c-9 -14 -12 -25 -7 -25 5 0 84 -49 174 -109 l165 -109
44 66 c84 127 80 118 65 131 -11 9 -23 -3 -61 -59 -25 -38 -48 -70 -51 -70 -3
0 -73 45 -155 100 -82 55 -151 100 -154 100 -2 0 -11 -11 -20 -25z"/>
<path d="M6390 4534 c-80 -63 -151 -119 -159 -123 -10 -6 3 -30 58 -100 40
-50 76 -91 81 -91 26 0 16 28 -33 92 l-56 72 62 47 61 48 40 -54 c23 -30 46
-54 53 -55 27 -1 22 22 -17 71 -22 28 -40 54 -40 59 0 4 24 26 54 48 l54 41
57 -75 c46 -59 60 -72 71 -63 8 6 11 16 7 23 -18 29 -137 176 -142 175 -3 0
-71 -52 -151 -115z"/>
<path d="M13485 4627 c-61 -28 -125 -132 -111 -178 2 -8 7 -27 11 -42 15 -69
146 -167 224 -167 108 0 196 112 170 216 -30 118 -197 215 -294 171z m141 -66
c68 -39 106 -91 112 -152 4 -45 2 -51 -32 -85 -34 -34 -39 -36 -89 -32 -67 5
-136 51 -172 112 -29 49 -31 84 -10 126 35 67 107 79 191 31z"/>
<path d="M13232 4338 c-10 -10 11 -35 95 -120 59 -59 105 -108 102 -108 -3 0
-84 16 -179 35 l-174 35 -22 -21 -22 -20 147 -144 c130 -128 148 -142 161
-129 13 14 2 28 -107 135 -67 65 -119 119 -115 119 5 0 96 -18 203 -39 142
-29 197 -36 207 -28 10 8 -18 42 -130 154 -78 79 -145 143 -148 143 -3 0 -11
-5 -18 -12z"/>
<path d="M6712 4126 l-143 -141 85 -85 c68 -66 88 -82 98 -72 10 10 -1 25 -50
75 -34 34 -62 67 -62 73 0 6 24 31 54 56 l53 47 48 -49 c37 -38 52 -47 62 -39
10 9 3 22 -32 61 -25 28 -45 53 -45 57 0 4 22 28 48 54 l48 47 64 -65 c50 -51
67 -62 77 -53 12 9 -2 27 -69 95 -45 46 -85 82 -88 82 -3 -1 -69 -65 -148
-143z"/>
<path d="M12932 4038 c-19 -19 -15 -26 38 -88 28 -32 50 -62 49 -66 0 -10
-121 -112 -141 -119 -9 -4 -35 20 -67 59 -52 65 -53 65 -77 49 l-24 -16 42
-46 c24 -25 83 -94 133 -153 49 -60 94 -108 101 -108 6 0 17 6 23 13 8 11 -3
30 -51 87 l-62 73 45 40 c24 22 59 51 77 65 l33 25 32 -39 c18 -21 46 -55 64
-74 30 -33 33 -34 49 -18 16 16 9 26 -111 170 -70 84 -130 154 -134 156 -4 1
-12 -3 -19 -10z"/>
<path d="M7073 4013 c-11 -16 -68 -84 -126 -152 -59 -69 -107 -128 -107 -131
0 -17 139 -122 173 -131 77 -21 162 22 217 108 64 100 51 166 -52 266 -38 37
-73 67 -77 67 -4 0 -16 -12 -28 -27z m115 -103 c47 -63 40 -126 -19 -194 -73
-83 -136 -98 -205 -48 -74 54 -76 46 43 184 l108 125 26 -20 c15 -10 36 -32
47 -47z"/>
<path d="M7355 3689 c-100 -148 -125 -192 -125 -217 0 -105 148 -189 234 -133
26 18 196 244 196 261 0 4 -6 12 -13 18 -10 9 -31 -13 -93 -101 -100 -142
-116 -157 -166 -157 -32 0 -47 7 -75 35 -51 51 -44 79 62 227 82 115 85 121
69 139 -9 10 -20 19 -23 18 -3 0 -33 -41 -66 -90z"/>
<path d="M12584 3756 c-82 -38 -122 -108 -110 -192 16 -122 138 -230 233 -208
50 12 113 54 140 95 22 34 24 42 12 49 -10 7 -24 -2 -52 -35 -71 -83 -152 -83
-225 0 -38 43 -62 100 -62 145 0 61 58 120 119 120 26 0 31 4 31 25 0 32 -19
32 -86 1z"/>
<path d="M12242 3530 l-101 -60 101 -172 c56 -95 103 -175 104 -177 4 -5 204
110 204 118 -1 29 -21 26 -90 -15 -41 -24 -78 -44 -81 -44 -11 0 -80 121 -74
130 3 4 30 22 60 39 38 22 53 35 49 46 -8 20 -11 20 -77 -20 l-57 -34 -23 37
c-28 44 -47 79 -47 86 0 2 34 24 75 47 70 40 88 60 66 73 -4 3 -53 -21 -109
-54z"/>
<path d="M7754 3476 c-92 -40 -158 -164 -140 -261 14 -72 112 -145 194 -145
43 0 22 32 -31 45 -52 13 -82 35 -103 77 -21 40 -17 78 12 136 30 61 70 97
126 114 35 10 45 10 76 -8 20 -10 46 -33 57 -49 12 -19 27 -29 38 -27 23 5 21
19 -8 58 -48 63 -150 91 -221 60z"/>
<path d="M11935 3363 c-71 -36 -132 -67 -134 -69 -3 -3 1 -10 7 -16 9 -9 24
-6 62 12 27 13 52 21 54 19 3 -2 41 -78 85 -167 75 -151 82 -162 101 -152 11
6 20 15 20 20 0 6 -36 82 -80 170 l-80 160 53 26 c64 32 61 29 50 47 -6 12
-31 3 -138 -50z"/>
<path d="M8037 3166 c-81 -85 -147 -157 -147 -159 0 -3 9 -7 19 -10 13 -3 34
11 72 49 l52 53 60 -30 60 -31 -7 -74 c-7 -71 -6 -75 16 -83 13 -5 24 -8 26
-6 1 1 12 96 23 210 21 201 21 209 3 222 -10 7 -20 13 -24 13 -3 0 -72 -69
-153 -154z m132 -1 c-6 -44 -11 -80 -12 -82 -2 -1 -25 8 -51 20 l-49 23 58 62
c32 34 59 61 61 60 1 -2 -2 -39 -7 -83z"/>
<path d="M8350 3222 c0 -13 16 -23 55 -37 43 -14 54 -22 49 -34 -35 -87 -125
-333 -123 -335 2 -2 13 -6 25 -10 19 -6 26 8 85 164 37 99 69 170 77 170 7 0
29 -7 49 -15 44 -19 59 -19 66 -1 4 10 -31 28 -129 65 -74 28 -139 51 -144 51
-6 0 -10 -8 -10 -18z"/>
<path d="M11470 3168 c-74 -38 -97 -116 -49 -167 20 -21 62 -35 142 -46 83
-11 114 -76 61 -126 -21 -19 -36 -24 -80 -24 -49 0 -54 -2 -54 -22 0 -21 5
-23 45 -23 122 0 198 96 150 190 -16 32 -69 55 -150 65 -59 8 -85 28 -85 65 0
39 33 64 88 66 39 2 48 5 50 23 3 18 -2 21 -35 21 -21 0 -59 -10 -83 -22z"/>
<path d="M8664 2914 c-61 -193 -61 -196 -40 -204 13 -5 23 -3 27 4 12 21 123
376 118 380 -2 2 -13 6 -24 10 -18 5 -25 -12 -81 -190z"/>
<path d="M11160 3070 c-104 -29 -136 -41 -139 -55 -3 -16 2 -17 35 -11 100 20
83 38 135 -156 36 -136 49 -174 63 -176 10 -2 22 0 26 5 5 4 -13 87 -39 183
-53 195 -55 179 27 200 38 10 55 31 35 43 -5 2 -69 -13 -143 -33z"/>
<path d="M8934 3020 c-71 -35 -114 -117 -114 -217 0 -98 42 -156 129 -179 84
-21 153 6 196 80 80 137 38 293 -88 325 -62 15 -76 14 -123 -9z m131 -34 c44
-19 65 -61 65 -134 0 -117 -76 -213 -157 -197 -78 14 -116 92 -95 194 26 121
98 174 187 137z"/>
<path d="M10818 2991 c-49 -10 -90 -20 -92 -22 -5 -6 68 -386 75 -394 7 -6
218 30 227 39 2 3 2 11 -1 19 -4 11 -19 11 -92 -2 -99 -17 -99 -17 -110 58 -3
25 -8 53 -11 62 -3 13 10 18 66 28 57 11 70 16 70 32 0 20 -3 20 -103 -1 -27
-6 -39 -5 -42 3 -5 16 -25 116 -25 126 0 4 34 13 77 20 93 16 103 19 103 37 0
18 -30 17 -142 -5z"/>
<path d="M9312 2933 c-1 -21 -10 -103 -22 -182 -25 -180 -25 -191 -2 -191 16
0 21 17 37 140 29 231 17 230 120 11 61 -130 95 -191 105 -191 13 0 20 31 39
173 13 94 25 187 28 205 5 28 3 32 -16 32 -11 0 -21 -2 -21 -5 0 -8 -30 -218
-36 -255 -6 -33 -10 -28 -88 130 -77 157 -82 165 -112 168 -30 3 -32 2 -32
-35z"/>
<path d="M10467 2939 c-38 -4 -70 -9 -72 -11 -2 -2 6 -94 18 -206 l21 -203 25
5 c15 3 60 8 101 11 94 8 110 13 110 32 0 13 -13 14 -94 8 l-93 -7 -6 38 c-4
22 -7 55 -7 75 0 34 2 37 38 43 20 3 52 6 70 6 26 0 32 4 32 20 0 20 -4 20
-73 14 l-74 -6 -6 38 c-4 22 -7 53 -7 71 0 31 0 31 63 38 95 9 117 15 117 31
0 16 -48 17 -163 3z"/>
<path d="M9900 2715 l0 -205 24 0 23 0 -5 163 c-2 89 -1 158 4 154 5 -4 34
-76 65 -160 75 -201 76 -201 151 7 32 87 60 161 63 164 3 3 5 -70 5 -161 l0
-167 25 0 25 0 0 206 0 205 -37 -3 -37 -3 -57 -159 c-31 -87 -59 -154 -61
-150 -3 5 -31 78 -63 162 l-58 152 -33 0 -34 0 0 -205z"/>
</g>
</svg>
