<svg xmlns="http://www.w3.org/2000/svg" version="1.1" xmlns:xlink="http://www.w3.org/1999/xlink" xmlns:svgjs="http://svgjs.dev/svgjs" width="2000" height="186" viewBox="0 0 2000 186"><g transform="matrix(1,0,0,1,-1.2121212121212466,-1.2104874669472565)"><svg viewBox="0 0 396 37" data-background-color="#ffffff" preserveAspectRatio="xMidYMid meet" height="186" width="2000" xmlns="http://www.w3.org/2000/svg" xmlns:xlink="http://www.w3.org/1999/xlink"><g id="tight-bounds" transform="matrix(1,0,0,1,0.2400000000000091,0.2407958939626269)"><svg viewBox="0 0 395.52 36.518408212074725" height="36.518408212074725" width="395.52"><g><svg viewBox="0 0 454.5943114061007 41.972746346113986" height="36.518408212074725" width="395.52"><g transform="matrix(1,0,0,1,59.07431140610075,5.80086436476684)"><svg viewBox="0 0 395.52 30.371017616580307" height="30.371017616580307" width="395.52"><g id="textblocktransform"><svg viewBox="0 0 395.52 30.371017616580307" height="30.371017616580307" width="395.52" id="textblock"><g><svg viewBox="0 0 395.52 30.371017616580307" height="30.371017616580307" width="395.52"><g transform="matrix(1,0,0,1,0,0)"><svg width="395.52" viewBox="2.5 -36.5 482.98 37.05" height="30.371017616580307" data-palette-color="#010c80"><g class="wordmark-text-0" data-fill-palette-color="primary" id="text-0"><path d="M18.65-33.55L18.65-33.55Q16.4-33.55 14.68-32.77 12.95-32 11.8-30.45L11.8-30.45Q10.35-28.5 9.47-25.4 8.6-22.3 8.6-18.6L8.6-18.6Q8.6-15.05 9.35-11.95 10.1-8.85 11.45-6.75L11.45-6.75Q12.7-4.8 14.6-3.88 16.5-2.95 19.25-2.95L19.25-2.95Q28.05-2.95 29.5-11.4L29.5-11.4 32.75-11.4Q30.4 0.5 18.55 0.5L18.55 0.5Q11.65 0.5 7.55-3.5L7.55-3.5Q5.1-5.9 3.8-9.55 2.5-13.2 2.5-17.65L2.5-17.65Q2.5-22.7 4.15-26.8 5.8-30.9 8.8-33.35L8.8-33.35Q12.6-36.5 18.85-36.5L18.85-36.5Q21.95-36.5 23.9-35.7 25.85-34.9 27.75-32.85L27.75-32.85 28.75-36 32-36 32-24.7 28.45-24.7Q27.75-29.1 25.25-31.33 22.75-33.55 18.65-33.55ZM70.35-18.4L70.35-18.4Q70.35-14.1 69.05-10.28 67.75-6.45 65.35-3.85L65.35-3.85Q63.25-1.65 60.32-0.58 57.4 0.5 53.5 0.5L53.5 0.5Q49.6 0.5 46.65-0.55 43.7-1.6 41.75-3.7L41.75-3.7Q39.5-6.05 38.22-9.68 36.95-13.3 36.95-17.6L36.95-17.6Q36.95-21.95 38.27-25.78 39.6-29.6 41.95-32.15L41.95-32.15Q44.05-34.4 46.87-35.45 49.7-36.5 53.65-36.5L53.65-36.5Q57.5-36.5 60.42-35.48 63.35-34.45 65.5-32.3L65.5-32.3Q67.9-29.85 69.12-26.18 70.35-22.5 70.35-18.4ZM43.2-18.6L43.2-18.6Q43.2-14.5 43.9-11.35 44.6-8.2 45.9-6.2L45.9-6.2Q47.15-4.35 49.07-3.43 51-2.5 53.8-2.5L53.8-2.5Q58.9-2.5 61.35-5.8L61.35-5.8Q62.7-7.6 63.4-10.6 64.1-13.6 64.1-17.7L64.1-17.7Q64.1-21.8 63.37-24.88 62.65-27.95 61.35-29.85L61.35-29.85Q60.05-31.75 58.07-32.65 56.1-33.55 53.45-33.55L53.45-33.55Q50.9-33.55 49.05-32.7 47.2-31.85 45.95-30.25L45.95-30.25Q43.2-26.6 43.2-18.6ZM96.9-4.8L97.1-4.8 106.65-36 118.85-36 118.85-33.6 114.65-32.55 114.65-3.45 118.85-2.4 118.85 0 105.5 0 105.5-2.4 109.15-3.45 109.15-32.5 99.25 0 92.95 0 83.05-32.5 83.05-3.45 86.7-2.4 86.7 0 75.1 0 75.1-2.4 79.3-3.45 79.3-32.55 75.1-33.6 75.1-36 87.5-36 96.9-4.8ZM145.19-4.8L145.39-4.8 154.94-36 167.14-36 167.14-33.6 162.94-32.55 162.94-3.45 167.14-2.4 167.14 0 153.79 0 153.79-2.4 157.44-3.45 157.44-32.5 147.54 0 141.24 0 131.34-32.5 131.34-3.45 134.99-2.4 134.99 0 123.39 0 123.39-2.4 127.59-3.45 127.59-32.55 123.39-33.6 123.39-36 135.79-36 145.19-4.8ZM205.29-18.4L205.29-18.4Q205.29-14.1 203.99-10.28 202.69-6.45 200.29-3.85L200.29-3.85Q198.19-1.65 195.27-0.58 192.34 0.5 188.44 0.5L188.44 0.5Q184.54 0.5 181.59-0.55 178.64-1.6 176.69-3.7L176.69-3.7Q174.44-6.05 173.17-9.68 171.89-13.3 171.89-17.6L171.89-17.6Q171.89-21.95 173.22-25.78 174.54-29.6 176.89-32.15L176.89-32.15Q178.99-34.4 181.82-35.45 184.64-36.5 188.59-36.5L188.59-36.5Q192.44-36.5 195.37-35.48 198.29-34.45 200.44-32.3L200.44-32.3Q202.84-29.85 204.07-26.18 205.29-22.5 205.29-18.4ZM178.14-18.6L178.14-18.6Q178.14-14.5 178.84-11.35 179.54-8.2 180.84-6.2L180.84-6.2Q182.09-4.35 184.02-3.43 185.94-2.5 188.74-2.5L188.74-2.5Q193.84-2.5 196.29-5.8L196.29-5.8Q197.64-7.6 198.34-10.6 199.04-13.6 199.04-17.7L199.04-17.7Q199.04-21.8 198.32-24.88 197.59-27.95 196.29-29.85L196.29-29.85Q194.99-31.75 193.02-32.65 191.04-33.55 188.39-33.55L188.39-33.55Q185.84-33.55 183.99-32.7 182.14-31.85 180.89-30.25L180.89-30.25Q178.14-26.6 178.14-18.6ZM210.04-2.4L214.24-3.45 214.24-32.55 210.04-33.6 210.04-36 220.24-36 238.29-8.75 238.29-32.55 234.09-33.6 234.09-36 246.24-36 246.24-33.6 242.04-32.55 242.04 0 237.79 0 217.99-29.55 217.99-3.45 222.19-2.4 222.19 0 210.04 0 210.04-2.4Z" fill="#000000" data-fill-palette-color="primary"></path><path d="M277.44-3L277.44-3Q281.69-3 283.71-5.13 285.74-7.25 285.74-11.4L285.74-11.4 285.74-14.4 281.54-15.45 281.54-17.95 295.44-17.95 295.44-15.45 291.24-14.4 291.24 0 288.14 0 286.89-3.95Q284.74-1.55 282.41-0.53 280.09 0.5 276.94 0.5L276.94 0.5Q270.09 0.5 265.99-3.7L265.99-3.7Q263.69-6.05 262.41-9.65 261.14-13.25 261.14-17.6L261.14-17.6Q261.14-22.05 262.46-25.88 263.79-29.7 266.19-32.2L266.19-32.2Q268.24-34.35 270.99-35.43 273.74-36.5 277.29-36.5L277.29-36.5Q280.29-36.5 282.36-35.63 284.44-34.75 286.29-32.65L286.29-32.65 287.39-36 290.64-36 290.64-24.7 287.09-24.7Q286.39-28.95 283.91-31.25 281.44-33.55 277.24-33.55L277.24-33.55Q274.79-33.55 273.14-32.75 271.49-31.95 270.29-30.3L270.29-30.3Q268.89-28.2 268.04-25.05 267.19-21.9 267.19-18.3L267.19-18.3Q267.19-14.65 268.06-11.48 268.94-8.3 270.54-6.1L270.54-6.1Q271.74-4.5 273.41-3.75 275.09-3 277.44-3ZM324.04-19.1L324.04-19.1Q323.14-18.4 321.96-17.85 320.79-17.3 319.04-16.95L319.04-16.95Q319.39-16.55 319.94-15.88 320.49-15.2 320.99-14.35L320.99-14.35 327.49-3.35 331.94-2.4 331.94 0 321.14 0 321.14-2.4 314.14-16 308.49-16 308.49-3.45 313.24-2.4 313.24 0 298.79 0 298.79-2.4 302.99-3.45 302.99-32.55 298.79-33.6 298.79-36 316.49-36Q318.89-36 320.69-35.55 322.49-35.1 323.94-34.1L323.94-34.1Q325.74-32.9 326.79-30.8 327.83-28.7 327.83-26.6L327.83-26.6Q327.83-24.5 326.81-22.48 325.79-20.45 324.04-19.1ZM308.49-32.85L308.49-19.15 315.14-19.15Q317.89-19.15 319.69-20.7L319.69-20.7Q320.69-21.6 321.26-23.1 321.83-24.6 321.83-26.3L321.83-26.3Q321.83-27.95 321.24-29.33 320.64-30.7 319.64-31.55L319.64-31.55Q318.79-32.25 317.66-32.55 316.54-32.85 314.94-32.85L314.94-32.85 308.49-32.85ZM367.88-18.4L367.88-18.4Q367.88-14.1 366.58-10.28 365.28-6.45 362.88-3.85L362.88-3.85Q360.78-1.65 357.86-0.58 354.93 0.5 351.03 0.5L351.03 0.5Q347.13 0.5 344.18-0.55 341.23-1.6 339.28-3.7L339.28-3.7Q337.03-6.05 335.76-9.68 334.48-13.3 334.48-17.6L334.48-17.6Q334.48-21.95 335.81-25.78 337.13-29.6 339.48-32.15L339.48-32.15Q341.58-34.4 344.41-35.45 347.23-36.5 351.18-36.5L351.18-36.5Q355.03-36.5 357.96-35.48 360.88-34.45 363.03-32.3L363.03-32.3Q365.43-29.85 366.66-26.18 367.88-22.5 367.88-18.4ZM340.73-18.6L340.73-18.6Q340.73-14.5 341.43-11.35 342.13-8.2 343.43-6.2L343.43-6.2Q344.68-4.35 346.61-3.43 348.53-2.5 351.33-2.5L351.33-2.5Q356.43-2.5 358.88-5.8L358.88-5.8Q360.23-7.6 360.93-10.6 361.63-13.6 361.63-17.7L361.63-17.7Q361.63-21.8 360.91-24.88 360.18-27.95 358.88-29.85L358.88-29.85Q357.58-31.75 355.61-32.65 353.63-33.55 350.98-33.55L350.98-33.55Q348.43-33.55 346.58-32.7 344.73-31.85 343.48-30.25L343.48-30.25Q340.73-26.6 340.73-18.6ZM399.78-13.2L399.78-13.2 399.78-32.55 395.58-33.6 395.58-36 407.63-36 407.63-33.6 403.43-32.55 403.43-12.15Q403.43-5.95 399.96-2.7 396.48 0.55 389.78 0.55L389.78 0.55Q383.13 0.55 379.55-2.78 375.98-6.1 375.98-12.2L375.98-12.2 375.98-32.55 371.78-33.6 371.78-36 385.68-36 385.68-33.6 381.48-32.55 381.48-13.3Q381.48-2.45 390.88-2.45L390.88-2.45Q395.58-2.45 397.68-5 399.78-7.55 399.78-13.2ZM411.43-2.4L415.63-3.45 415.63-32.55 411.43-33.6 411.43-36 421.63-36 439.68-8.75 439.68-32.55 435.48-33.6 435.48-36 447.63-36 447.63-33.6 443.43-32.55 443.43 0 439.18 0 419.38-29.55 419.38-3.45 423.58-2.4 423.58 0 411.43 0 411.43-2.4ZM461.43-32.75L461.43-3.25 468.68-3.25Q471.38-3.25 473.28-4.05 475.18-4.85 476.48-6.55L476.48-6.55Q477.83-8.3 478.53-11.08 479.23-13.85 479.23-17.7L479.23-17.7Q479.23-25.25 476.48-29.05L476.48-29.05Q475.13-30.95 473.1-31.85 471.08-32.75 468.18-32.75L468.18-32.75 461.43-32.75ZM451.73-33.6L451.73-36 469.03-36Q476.48-36 480.63-31.8L480.63-31.8Q482.98-29.4 484.23-25.9 485.48-22.4 485.48-18.4L485.48-18.4Q485.48-14.2 484.15-10.53 482.83-6.85 480.48-4.35L480.48-4.35Q476.33 0 468.58 0L468.58 0 451.73 0 451.73-2.4 455.93-3.45 455.93-32.55 451.73-33.6Z" fill="#000000" data-fill-palette-color="secondary"></path></g></svg></g></svg></g></svg></g></svg></g><g><svg viewBox="0 0 51.90444305124893 41.972746346113986" height="41.972746346113986" width="51.90444305124893"><g><svg xmlns="http://www.w3.org/2000/svg" xmlns:xlink="http://www.w3.org/1999/xlink" version="1.1" x="0" y="0" viewBox="4.9995 13.61025 90.00087502340824 72.77958641336241" enable-background="new 0 0 100 100" xml:space="preserve" height="41.972746346113986" width="51.90444305124893" class="icon-icon-0" data-fill-palette-color="accent" id="icon-0"><g fill="#00ffef" data-fill-palette-color="accent"><path fill="#000000" d="M71.62 59.237l-7.172 3.973c-4.41 2.441-9.407 3.734-14.45 3.734-5.039 0-10.035-1.292-14.449-3.734l-8.796-4.873c0.11 4.083-0.062 8.421-1.726 11.882-0.459 0.945-1.377 1.8-1.36 2.936 0.02 1.576 1.812 1.842 3.102 1.602 0 0 7.604-1.458 18.126 8.854 1.045 1.025 2.076 1.989 3.492 2.49 2.771 0.983 4.831-0.715 6.735-2.508 1.296-1.219 2.741-2.277 4.193-3.306 3.486-2.463 7.91-5.56 12.351-5.635 0 0 5.729 1.25 2.396-4.062C74.062 70.59 72.535 65.669 71.62 59.237" data-fill-palette-color="accent"></path><polygon fill="#000000" points="14.998,55.277 13.331,65.277 13.331,78.611 19.998,78.611 19.998,65.277 18.331,55.277    18.331,46.051 14.998,44.204  " data-fill-palette-color="accent"></polygon><path fill="#000000" d="M93.499 34.391L61.22 16.512c-6.986-3.869-15.456-3.869-22.438 0L6.498 34.391c-1.998 1.108-1.998 3.996 0 5.106l8.5 4.706v-7.259h38.334v3.333H18.331v5.773l20.45 11.327c6.982 3.867 15.452 3.867 22.438 0l32.279-17.879C95.501 38.387 95.501 35.5 93.499 34.391" data-fill-palette-color="accent"></path></g></svg></g></svg></g></svg></g><defs></defs></svg><rect width="395.52" height="36.518408212074725" fill="none" stroke="none" visibility="hidden"></rect></g></svg></g></svg>